<?xml version="1.0" standalone="no"?><svg xmlns="http://www.w3.org/2000/svg" viewBox="0 0 1440 320"><path fill="#0099ff" fill-opacity="1" d="M0,32L34.3,48C68.6,64,137,96,206,101.3C274.3,107,343,85,411,69.3C480,53,549,43,617,74.7C685.7,107,754,181,823,218.7C891.4,256,960,256,1029,234.7C1097.1,213,1166,171,1234,170.7C1302.9,171,1371,213,1406,234.7L1440,256L1440,320L1405.7,320C1371.4,320,1303,320,1234,320C1165.7,320,1097,320,1029,320C960,320,891,320,823,320C754.3,320,686,320,617,320C548.6,320,480,320,411,320C342.9,320,274,320,206,320C137.1,320,69,320,34,320L0,320Z"></path></svg>